<svg width="169" height="41" viewBox="0 0 169 41" fill="none" xmlns="http://www.w3.org/2000/svg">
<path d="M29.1993 32.5608C16.8737 32.5608 12.5894 29.7925 12.5234 16.3463C12.5234 2.90016 16.7418 0 29.1334 0C34.3405 0 39.2181 0.790951 41.1954 1.18643C41.7227 1.25234 42.0523 1.71373 41.9205 2.17512L41.4591 4.74571C41.3932 5.2071 40.8659 5.53666 40.3386 5.47075C38.4271 5.14118 33.945 4.48206 29.7266 4.48206C19.1806 4.48206 18.126 6.72309 18.126 16.3463C18.126 25.5741 19.1806 28.2765 29.5948 28.2106C33.7473 28.2106 38.3612 27.5515 40.3386 27.2219C40.8659 27.156 41.3932 27.4856 41.4591 27.947L41.9205 30.3198C41.9864 30.7812 41.6568 31.2426 41.1954 31.3085C39.2181 31.7699 34.4064 32.5608 29.1993 32.5608Z" fill="white"/>
<path d="M0 31.5722V29.8584C0 29.5289 0.263649 29.2652 0.593212 29.1993L2.30694 28.8697C2.90016 28.8038 3.03198 28.6061 3.03198 28.0129V14.303C3.03198 13.7098 2.90016 13.5121 2.30694 13.4462L0.593212 13.1166C0.263649 13.0507 0 12.7871 0 12.4575V10.7438C0 10.3483 0.329562 10.0846 0.725038 10.0846H7.51404C7.90952 10.0846 8.23908 10.4142 8.23908 10.7438V28.0788C8.23908 28.672 8.37091 28.8697 8.96412 28.9356L10.6119 29.2652C10.9415 29.3311 11.2052 29.5948 11.2052 29.9243V31.6381C11.2052 32.0335 10.8756 32.2972 10.4801 32.2972H0.725038C0.329562 32.2972 0 31.9676 0 31.5722Z" fill="white"/>
<path d="M96.7598 31.4403V29.7265C96.7598 29.397 97.0234 29.1333 97.353 29.0674L99.0667 28.7379C99.6599 28.6719 99.7918 28.4742 99.7918 27.881V14.1712C99.7918 13.5779 99.6599 13.3802 99.0667 13.3143L97.353 12.9847C97.0234 12.9188 96.7598 12.6552 96.7598 12.3256V10.6119C96.7598 10.2164 97.0893 9.95275 97.4848 9.95275H104.274C104.669 9.95275 104.999 10.2823 104.999 10.6119V27.9469C104.999 28.5401 105.131 28.7379 105.724 28.8038L107.372 29.1333C107.701 29.1992 107.965 29.4629 107.965 29.7925V31.5062C107.965 31.9017 107.635 32.1653 107.24 32.1653H97.4848C97.0893 32.0994 96.7598 31.7698 96.7598 31.4403Z" fill="white"/>
<path d="M162.672 29.1334C162.541 29.0016 162.409 28.9356 162.277 28.8697L160.629 28.5402C159.97 28.4743 159.904 28.2765 159.904 27.6833L159.772 1.45007C159.772 1.05459 159.443 0.790943 159.047 0.790943H152.258C151.863 0.790943 151.533 1.12051 151.533 1.45007V3.1638C151.533 3.49336 151.797 3.75701 152.126 3.82292L153.84 4.15249C154.433 4.2184 154.565 4.41614 154.565 5.00935L154.631 26.7605C154.631 27.7492 153.972 28.5402 152.917 28.6061C152.72 28.6061 153.115 28.6061 152.851 28.6061H151.599C151.401 28.6061 151.731 28.6061 151.533 28.6061C150.413 28.5402 149.819 27.6833 149.819 26.7605V16.4122C149.819 13.3803 148.831 11.6665 146.787 10.6778C144.942 9.75506 142.174 9.4255 138.417 9.4255C133.341 9.4255 129.321 10.1505 127.739 10.4801C127.343 10.546 127.08 10.8756 127.146 11.2711L127.607 13.5121C127.673 13.9076 128.068 14.1053 128.464 14.0394C129.98 13.7757 133.737 13.1166 137.56 13.1166C139.735 13.1166 141.317 13.1825 142.437 13.6439C144.019 14.2371 144.612 15.3576 144.546 17.1373C144.546 17.5328 144.151 17.9282 143.69 17.9282L134.264 18.0601C127.541 18.1919 125.564 19.7738 125.564 25.1127C125.564 30.7812 127.871 32.2972 135.648 32.2972C136.901 32.2972 138.812 32.1654 139.735 32.1654C140.13 32.1654 140.526 32.0335 140.855 31.9017C141.778 31.5062 143.755 30.6494 144.283 30.5835C144.81 30.5175 145.074 30.7812 145.206 31.1767C145.206 31.2426 145.271 31.3744 145.271 31.4403C145.337 31.7699 145.667 31.9676 145.997 31.9676H150.742H151.995H152.258H162.013C162.409 31.9676 162.738 31.6381 162.738 31.3085V29.5948C162.87 29.397 162.804 29.2652 162.672 29.1334ZM144.612 27.2219C144.612 27.5515 144.349 27.8151 144.019 27.881C142.635 28.1447 139.208 28.672 136.241 28.672C132.484 28.672 130.968 28.4743 130.968 25.2445C130.968 21.2898 132.88 21.6852 136.571 21.6193L143.887 21.4875C144.283 21.4875 144.678 21.7512 144.678 22.1466L144.612 27.2219Z" fill="white"/>
<path d="M119.631 32.2312C113.172 32.2312 112.381 29.9902 112.381 24.849V14.0393C112.381 13.6439 112.052 13.3802 111.656 13.3802H108.097C107.701 13.3802 107.372 13.0506 107.372 12.7211V10.48C107.372 10.0846 107.701 9.82092 108.097 9.82092H111.656C112.052 9.82092 112.381 9.49136 112.381 9.16179V4.54791C112.381 4.15243 112.711 3.88878 113.106 3.88878H116.863C117.259 3.88878 117.588 4.21835 117.588 4.54791V9.16179C117.588 9.55727 117.918 9.82092 118.313 9.82092H124.114C124.509 9.82092 124.839 10.1505 124.839 10.48V12.7211C124.839 13.1166 124.509 13.3802 124.114 13.3802H118.313C117.918 13.3802 117.588 13.7098 117.588 14.0393V25.574C117.588 28.0787 117.918 28.7379 120.95 28.7379C121.675 28.7379 122.927 28.606 123.718 28.4742C124.114 28.4083 124.509 28.6719 124.575 29.0674L124.839 30.9789C124.904 31.3084 124.641 31.638 124.311 31.7039C123.388 31.9017 121.609 32.2312 119.631 32.2312Z" fill="white"/>
<path d="M63.6056 32.1653C63.2102 32.1653 62.8806 31.9675 62.8147 31.5721C62.6829 31.1766 62.4851 30.6493 61.826 30.7811C61.2987 30.847 59.3213 31.7039 58.3985 32.0994C58.069 32.2312 57.6735 32.363 57.278 32.363C56.3553 32.4289 54.4438 32.4949 53.1915 32.4949C45.4138 32.4949 43.1068 30.9789 43.1068 25.3104C43.1068 19.9714 45.0842 18.3895 51.8073 18.2577L61.0351 18.1259C61.826 18.1259 62.0237 17.7963 62.0897 17.1372C62.0897 15.4235 61.4964 14.3689 59.9804 13.7757C58.8599 13.3143 57.278 13.2484 55.1029 13.2484C51.3459 13.2484 47.6548 13.8416 46.0729 14.1711C45.6115 14.237 45.216 13.9734 45.1501 13.5779L44.6887 11.4028C44.6228 11.0073 44.8865 10.6778 45.2819 10.5459C46.8638 10.2164 50.8186 9.49134 55.8939 9.49134C59.6509 9.49134 62.4192 9.8209 64.2648 10.7437C66.3081 11.7324 67.2968 13.4461 67.2968 16.4781V27.7491C67.2968 28.3424 67.4286 28.5401 68.0218 28.606L69.6696 28.9356C70.0651 29.0015 70.3287 29.331 70.3287 29.6606V31.3084C70.3287 31.7039 69.9992 32.0335 69.5378 32.0335L63.6056 32.1653ZM62.0897 22.3443C62.0897 21.9488 61.6942 21.6193 61.2987 21.6193L54.0483 21.7511C50.3572 21.817 48.4457 21.3556 48.4457 25.3763C48.4457 28.606 49.9617 28.8037 53.7187 28.8037C56.6848 28.8037 60.0464 28.2764 61.4305 28.0128C61.826 27.9469 62.0897 27.6173 62.0897 27.2878V22.3443Z" fill="white"/>
<path d="M85.225 9.68916C84.4341 9.68916 83.5772 9.68916 82.9181 9.75507C81.8635 9.82098 81.1384 9.95281 80.5452 10.1505L78.8315 10.8097C78.3042 11.0074 77.3814 11.4029 76.92 11.4029C76.3927 11.4029 76.1291 10.4801 76.1291 10.4801C75.9972 10.1505 75.7336 10.0187 75.2722 10.0187H69.7355C69.406 10.0187 69.0105 10.2824 69.0105 10.6778V12.3916C69.0105 12.7211 69.2741 12.9848 69.6037 13.0507L71.3174 13.3803C71.9107 13.4462 72.0425 13.578 72.0425 14.2371L72.1084 36.0542C72.1084 36.6474 71.9766 36.8452 71.3833 36.9111L69.6696 37.2406C69.3401 37.3066 69.0764 37.5702 69.0764 37.8998V39.6135C69.0764 40.009 69.406 40.2726 69.8014 40.2726H79.5565C79.952 40.2726 80.2816 39.9431 80.2816 39.6135V37.8998C80.2816 37.5702 80.0179 37.3066 79.6883 37.2406L78.0405 36.9111C77.3814 36.8452 77.3155 36.6474 77.3155 36.0542V32.2972C77.3155 31.9676 77.645 31.7699 77.9746 31.8358C79.0951 32.0995 81.5998 32.5608 84.1045 32.5608C93.4641 32.5608 95.5074 29.2652 95.5074 21.0261C95.5074 12.853 93.4641 9.68916 85.225 9.68916ZM83.709 28.8038C81.2043 28.8038 79.0951 28.6061 78.0405 28.4083C77.6451 28.3424 77.3155 28.0129 77.3155 27.6833V14.7644C77.3155 14.369 77.6451 14.0394 78.0405 13.9735C79.227 13.7757 81.5998 13.4462 83.8408 13.4462C89.0479 13.4462 90.1685 14.8963 90.1685 21.0261C90.1685 27.5515 89.0479 28.7379 83.709 28.8038Z" fill="white"/>
<path d="M98.6053 5.66851V1.51601C98.6053 1.12053 98.9349 0.856884 99.3304 0.856884H104.208C104.603 0.856884 104.933 1.18645 104.933 1.51601V5.66851C104.933 6.06398 104.603 6.32763 104.208 6.32763H99.3304C98.9349 6.32763 98.6053 5.99807 98.6053 5.66851Z" fill="white"/>
<path d="M1.84546 5.66851V1.51601C1.84546 1.12053 2.17502 0.856884 2.5705 0.856884H7.44804C7.84351 0.856884 8.17308 1.18645 8.17308 1.51601V5.66851C8.17308 6.06398 7.84351 6.32763 7.44804 6.32763H2.5705C2.17502 6.32763 1.84546 5.99807 1.84546 5.66851Z" fill="white"/>
<path d="M166.298 29.2651H167.22C167.484 29.2651 167.682 29.3311 167.814 29.4629C167.945 29.5947 168.011 29.7265 168.011 29.9243C168.011 30.2538 167.814 30.4516 167.616 30.5175L168.077 31.2425H167.484L167.089 30.5834H166.759V31.2425H166.298V29.2651ZM167.154 30.1879C167.352 30.1879 167.484 30.0561 167.484 29.9243C167.484 29.7265 167.352 29.6606 167.154 29.6606H166.693V30.2538H167.154V30.1879Z" fill="white"/>
<path d="M167.023 28.672C167.879 28.672 168.539 29.3311 168.539 30.188C168.539 31.0448 167.879 31.704 167.023 31.704C166.166 31.704 165.507 31.0448 165.507 30.188C165.507 29.3311 166.166 28.672 167.023 28.672ZM167.023 28.2106C165.902 28.2106 165.045 29.1334 165.045 30.188C165.045 31.2426 165.968 32.1654 167.023 32.1654C168.077 32.1654 169 31.2426 169 30.188C169 29.1334 168.143 28.2106 167.023 28.2106Z" fill="white"/>
</svg>
